<svg width="100%" height="100%" viewBox="0 0 24 24" fill="none" xmlns="http://www.w3.org/2000/svg">
<path d="M9.34813 5.8584C9.76234 5.8584 10.0981 5.52261 10.0981 5.1084C10.0981 4.69419 9.76234 4.3584 9.34813 4.3584L5.10549 4.3584C4.99959 4.3584 4.89882 4.38034 4.80748 4.41994C4.72512 4.45556 4.64784 4.50665 4.58007 4.5732L4.57514 4.57809L4.57356 4.57967C4.4994 4.65426 4.44416 4.74056 4.40782 4.83259C4.37947 4.90426 4.36184 4.98133 4.35691 5.06184C4.35584 5.07904 4.35537 5.09627 4.35549 5.1135L4.35548 9.35104C4.35548 9.76526 4.69127 10.101 5.10548 10.101C5.51969 10.101 5.85548 9.76526 5.85548 9.35105L5.85548 6.91909L12.8407 13.9043L12.8407 17.8364C12.8407 18.0353 12.9197 18.226 13.0604 18.3667L13.4139 18.7202C13.7068 19.0131 14.1817 19.0131 14.4746 18.7202C14.7675 18.4273 14.7675 17.9525 14.4746 17.6596L14.3407 17.5257L14.3407 15.4043L14.962 16.0257L14.962 19.9577C14.962 20.1566 15.0411 20.3474 15.1817 20.488L16.2424 21.5487C16.5353 21.8416 17.0101 21.8416 17.303 21.5487C17.5959 21.2558 17.5959 20.7809 17.303 20.488L16.462 19.647L16.462 16.465H19.644L20.485 17.306C20.7779 17.5989 21.2528 17.5989 21.5457 17.306C21.8386 17.0131 21.8386 16.5383 21.5457 16.2454L20.485 15.1847C20.3444 15.0441 20.1536 14.965 19.9547 14.965H16.0228L15.4014 14.3437H17.5227L17.6566 14.4776C17.9495 14.7705 18.4243 14.7705 18.7172 14.4776C19.0101 14.1847 19.0101 13.7098 18.7172 13.4169L18.3637 13.0634C18.223 12.9227 18.0323 12.8437 17.8333 12.8437H13.9014L6.91611 5.8584L9.34813 5.8584Z" fill="currentColor"/>
</svg>
