<svg width="100%" height="100%" viewBox="0 0 16 19" fill="none" xmlns="http://www.w3.org/2000/svg">
<path fill-rule="evenodd" clip-rule="evenodd" d="M2.71211 0.724579C2.74863 0.182356 3.34524 -0.162098 3.83308 0.0773855L6.33225 1.30424C6.5001 1.38664 6.69584 1.40317 6.88073 1.35055L9.6335 0.567099C10.1708 0.414169 10.6689 0.851042 10.5693 1.38794L10.059 4.13843C10.0247 4.32316 10.0621 4.51115 10.1638 4.66519L11.678 6.95876C11.9736 7.40647 11.6848 8.02093 11.1354 8.11326L9.28026 8.42505L15.8388 17.7854C16.0764 18.1246 15.9941 18.5923 15.6549 18.83C15.3157 19.0677 14.848 18.9854 14.6103 18.6461L7.79399 8.91785L6.02023 11.0665C5.66556 11.4961 4.98902 11.439 4.74909 10.9592L3.5199 8.50106C3.43734 8.33596 3.29324 8.20956 3.11613 8.14688L0.478985 7.21357C-0.0357868 7.03139 -0.165106 6.38163 0.236006 5.99274L2.29088 4.0005C2.42889 3.86669 2.51245 3.68892 2.52501 3.50235L2.71211 0.724579ZM4.02162 3.60316L4.13652 1.89734L5.67125 2.65075C6.18225 2.9016 6.76065 2.94429 7.29133 2.79326L8.8661 2.34507L8.58414 3.8648C8.48046 4.42366 8.59219 5.00718 8.91202 5.49162L9.78812 6.81866L8.07223 7.10705C7.52726 7.19864 7.03221 7.48446 6.6804 7.91062L5.57271 9.25243L4.86151 7.83018C4.60188 7.31098 4.1524 6.92246 3.61657 6.73283L2.15947 6.21714L3.335 5.07744C3.73114 4.69338 3.98337 4.17113 4.02162 3.60316Z" fill="currentColor"/>
</svg>
