<svg width="100%" height="100%" viewBox="0 0 200 200" fill="none" xmlns="http://www.w3.org/2000/svg">
<path d="M124.999 189.583H74.9994C29.7494 189.583 10.416 170.25 10.416 125V74.9998C10.416 29.7498 29.7494 10.4165 74.9994 10.4165H124.999C170.249 10.4165 189.583 29.7498 189.583 74.9998V125C189.583 170.25 170.249 189.583 124.999 189.583ZM74.9994 22.9165C36.5827 22.9165 22.916 36.5832 22.916 74.9998V125C22.916 163.417 36.5827 177.083 74.9994 177.083H124.999C163.416 177.083 177.083 163.417 177.083 125V74.9998C177.083 36.5832 163.416 22.9165 124.999 22.9165H74.9994Z" fill="currentColor"/>
<path d="M178.996 148.832H20.9961C17.5794 148.832 14.7461 145.999 14.7461 142.582C14.7461 139.165 17.5794 136.332 20.9961 136.332H178.996C182.413 136.332 185.246 139.165 185.246 142.582C185.246 145.999 182.496 148.832 178.996 148.832Z" fill="currentColor"/>
<path d="M178.996 65.4985H20.9961C17.5794 65.4985 14.7461 62.6652 14.7461 59.2485C14.7461 55.8319 17.4961 52.9985 20.9961 52.9985H178.996C182.413 52.9985 185.246 55.8319 185.246 59.2485C185.246 62.6652 182.496 65.4985 178.996 65.4985Z" fill="currentColor"/>
<path d="M58.0879 185.082C54.6712 185.082 51.8379 182.249 51.8379 178.832V142.582C51.8379 139.165 54.6712 136.332 58.0879 136.332C61.5046 136.332 64.3379 139.165 64.3379 142.582V178.832C64.3379 182.332 61.5046 185.082 58.0879 185.082Z" fill="currentColor"/>
<path d="M100 189.332C96.5833 189.332 93.75 186.499 93.75 183.082V142.582C93.75 139.165 96.5833 136.332 100 136.332C103.417 136.332 106.25 139.165 106.25 142.582V183.082C106.25 186.499 103.417 189.332 100 189.332Z" fill="currentColor"/>
<path d="M141.422 185.582C138.005 185.582 135.172 182.749 135.172 179.332V142.582C135.172 139.165 138.005 136.332 141.422 136.332C144.839 136.332 147.672 139.165 147.672 142.582V179.332C147.672 182.832 144.839 185.582 141.422 185.582Z" fill="currentColor"/>
<path d="M58.0879 60.082C54.6712 60.082 51.8379 57.2487 51.8379 53.832V17.582C51.8379 14.1654 54.6712 11.332 58.0879 11.332C61.5046 11.332 64.3379 14.1654 64.3379 17.582V53.832C64.3379 57.332 61.5046 60.082 58.0879 60.082Z" fill="currentColor"/>
<path d="M100 64.332C96.5833 64.332 93.75 61.4987 93.75 58.082V17.582C93.75 14.1654 96.5833 11.332 100 11.332C103.417 11.332 106.25 14.1654 106.25 17.582V58.082C106.25 61.4987 103.417 64.332 100 64.332Z" fill="currentColor"/>
<path d="M100 156.498C96.5833 156.498 93.75 153.665 93.75 150.248V58.5815C93.75 55.1649 96.5833 52.3315 100 52.3315C103.417 52.3315 106.25 55.1649 106.25 58.5815V150.248C106.25 153.665 103.417 156.498 100 156.498Z" fill="currentColor"/>
<path d="M141.422 60.582C138.005 60.582 135.172 57.7487 135.172 54.332V17.582C135.172 14.1654 138.005 11.332 141.422 11.332C144.839 11.332 147.672 14.1654 147.672 17.582V54.332C147.672 57.832 144.839 60.582 141.422 60.582Z" fill="currentColor"/>
</svg>
