<svg width="100%" height="100%" viewBox="0 0 1147 641" fill="none" xmlns="http://www.w3.org/2000/svg">
<path d="M8.91857 537.816C-3.55448 505.028 0.116176 467.738 17.6743 428.264C35.2361 388.782 66.6514 347.218 109.466 306.026C195.092 223.647 326.097 142.966 482.196 83.5826C638.294 24.1995 789.799 -2.59128 908.528 2.0472C967.896 4.36657 1018.99 14.541 1058.36 32.3677C1097.71 50.1909 1125.24 75.6122 1137.71 108.4C1150.19 141.187 1146.51 178.476 1128.96 217.95C1111.39 257.432 1079.98 298.996 1037.16 340.188C951.538 422.567 820.534 503.248 664.436 562.632C508.337 622.015 356.831 648.806 238.102 644.167C178.735 641.848 127.637 631.673 88.2736 613.847C48.9187 596.024 21.3917 570.603 8.91857 537.816Z" stroke="currentColor" stroke-width="2"/>
</svg>
