<svg width="100%" height="100%" viewBox="0 0 40 41" fill="none" xmlns="http://www.w3.org/2000/svg">
<path d="M34.6104 4.92129C34.7448 5.05564 34.8296 5.23948 34.8296 5.45162L34.8296 14.0359C34.8296 14.446 34.4902 14.7854 34.0801 14.7854C33.67 14.7854 33.3305 14.446 33.3305 14.0359L33.3305 6.20115L25.4958 6.20115C25.0857 6.20115 24.7463 5.86174 24.7463 5.45162C24.7463 5.04149 25.0857 4.70208 25.4958 4.70208L34.0801 4.70208C34.2922 4.70208 34.4761 4.78694 34.6104 4.92129Z" fill="currentColor"/>
<path d="M34.4915 5.04161C34.7814 5.33152 34.7814 5.81235 34.4915 6.10227L22.5909 18.0029C22.301 18.2928 21.8201 18.2928 21.5302 18.0029C21.2403 17.713 21.2403 17.2321 21.5302 16.9422L33.4308 5.04161C33.7207 4.75169 34.2016 4.75169 34.4915 5.04161Z" fill="currentColor"/>
<path d="M4.82123 35.6119C4.68688 35.4776 4.60203 35.2937 4.60203 35.0816L4.60203 26.4973C4.60203 26.0872 4.94144 25.7478 5.35156 25.7478C5.76168 25.7478 6.1011 26.0872 6.1011 26.4973L6.10109 34.3321L13.9358 34.3321C14.346 34.3321 14.6854 34.6715 14.6854 35.0816C14.6854 35.4917 14.346 35.8311 13.9358 35.8311L5.35156 35.8311C5.13943 35.8311 4.95558 35.7463 4.82123 35.6119Z" fill="currentColor"/>
<path d="M4.94016 35.4916C4.65024 35.2017 4.65024 34.7209 4.94016 34.4309L16.8408 22.5303C17.1307 22.2404 17.6115 22.2404 17.9014 22.5303C18.1913 22.8202 18.1913 23.3011 17.9014 23.591L6.00082 35.4916C5.7109 35.7815 5.23007 35.7815 4.94016 35.4916Z" fill="currentColor"/>
</svg>
