<svg width="100%" height="100%" viewBox="0 0 24 24" fill="none" xmlns="http://www.w3.org/2000/svg">
<path fill-rule="evenodd" clip-rule="evenodd" d="M8 13.0005C7.44772 13.0005 7 13.4482 7 14.0005V18.0005C7 18.5528 7.44772 19.0005 8 19.0005H11C11.5523 19.0005 12 18.5528 12 18.0005V14.0005C12 13.4482 11.5523 13.0005 11 13.0005H8ZM8.5 14.5005V17.5005H10.5V14.5005H8.5Z" fill="currentColor"/>
<path fill-rule="evenodd" clip-rule="evenodd" d="M14 11.0005C14 10.4482 14.4477 10.0005 15 10.0005H17C17.5523 10.0005 18 10.4482 18 11.0005V13.0005C18 13.5528 17.5523 14.0005 17 14.0005H15C14.4477 14.0005 14 13.5528 14 13.0005V11.0005ZM15.5 12.5005V11.5005H16.5V12.5005H15.5Z" fill="currentColor"/>
<path fill-rule="evenodd" clip-rule="evenodd" d="M9.50145 3.99957L3.83285 8.53445C2.7013 9.43969 2.14783 10.8861 2.38606 12.3155L3.44316 18.6581C3.76462 20.5869 5.43338 22.0005 7.38874 22.0005H16.6117C18.5671 22.0005 20.2358 20.5869 20.5573 18.6581L21.6144 12.3155C21.8526 10.8861 21.2992 9.43969 20.1676 8.53445L14.499 3.99957C13.0381 2.83087 10.9623 2.83087 9.50145 3.99957ZM10.4385 5.17087L4.7699 9.70575C4.06267 10.2715 3.71676 11.1756 3.86565 12.0689L4.92275 18.4115C5.12366 19.617 6.16664 20.5005 7.38874 20.5005H16.6117C17.8338 20.5005 18.8768 19.617 19.0777 18.4115L20.1348 12.0689C20.2837 11.1756 19.9378 10.2715 19.2306 9.70575L13.562 5.17088C12.6489 4.44044 11.3515 4.44044 10.4385 5.17087Z" fill="currentColor"/>
</svg>
