<svg width="100%" height="100%" viewBox="0 0 24 24" fill="none" xmlns="http://www.w3.org/2000/svg">
<path fill-rule="evenodd" clip-rule="evenodd" d="M11.2659 5.51109C11.5181 4.82964 12.4819 4.82964 12.7341 5.51109L13.0831 6.45441C13.1624 6.66866 13.3313 6.83758 13.5456 6.91686L14.4889 7.26592C15.1704 7.51808 15.1704 8.48192 14.4889 8.73408L13.5456 9.08314C13.3313 9.16242 13.1624 9.33134 13.0831 9.54559L12.7341 10.4889C12.4819 11.1704 11.5181 11.1704 11.2659 10.4889L10.9169 9.54559C10.8376 9.33134 10.6687 9.16242 10.4544 9.08314L9.51109 8.73408C8.82964 8.48192 8.82964 7.51808 9.51109 7.26592L10.4544 6.91686C10.6687 6.83758 10.8376 6.66866 10.9169 6.45441L11.2659 5.51109ZM11.5643 8C11.7285 7.87513 11.8751 7.72853 12 7.56429C12.1249 7.72853 12.2715 7.87513 12.4357 8C12.2715 8.12487 12.1249 8.27147 12 8.43571C11.8751 8.27147 11.7285 8.12487 11.5643 8Z" fill="currentColor"/>
<path d="M6.80458 11.5401C7.01455 11.2436 7.48005 11.3683 7.51365 11.7301L7.56016 12.2308C7.57072 12.3446 7.63044 12.448 7.72366 12.514L8.13407 12.8047C8.43056 13.0146 8.30583 13.4801 7.94408 13.5137L7.44332 13.5602C7.32959 13.5708 7.22615 13.6305 7.16013 13.7237L6.86947 14.1342C6.6595 14.4307 6.194 14.3059 6.1604 13.9442L6.1139 13.4434C6.10333 13.3297 6.04361 13.2262 5.9504 13.1602L5.53998 12.8696C5.24349 12.6596 5.36822 12.1941 5.72998 12.1605L6.23073 12.114C6.34447 12.1034 6.44791 12.0437 6.51392 11.9505L6.80458 11.5401Z" fill="currentColor"/>
<path d="M13.5143 14.0185C13.5446 13.5447 14.148 13.3644 14.4334 13.7438L14.8285 14.2691C14.9182 14.3884 15.0556 14.4625 15.2045 14.4721L15.8604 14.5141C16.3342 14.5444 16.5146 15.1479 16.1351 15.4332L15.6099 15.8283C15.4906 15.918 15.4164 16.0554 15.4069 16.2044L15.3649 16.8602C15.3345 17.3341 14.7311 17.5144 14.4457 17.135L14.0507 16.6097C13.9609 16.4904 13.8236 16.4163 13.6746 16.4067L13.0187 16.3647C12.5449 16.3344 12.3645 15.7309 12.744 15.4455L13.2692 15.0505C13.3885 14.9608 13.4627 14.8234 13.4722 14.6744L13.5143 14.0185Z" fill="currentColor"/>
<path fill-rule="evenodd" clip-rule="evenodd" d="M18.4561 17.2705C20.0305 15.6497 21 13.4381 21 11C21 8.54709 20.0187 6.32338 18.4273 4.7C16.7939 3.03377 14.5177 2 12 2C7.02944 2 3 6.02944 3 11C3 13.438 3.9694 15.6496 5.54378 17.2703L5.1632 18.0791C4.30494 19.903 5.63572 22 7.65148 22H16.3484C18.3642 22 19.695 19.9029 18.8366 18.079L18.4561 17.2705ZM12 18.5C16.1421 18.5 19.5 15.1421 19.5 11C19.5 8.9554 18.6838 7.10441 17.3561 5.75007C15.9932 4.35977 14.0984 3.5 12 3.5C7.85786 3.5 4.5 6.85786 4.5 11C4.5 15.1421 7.85786 18.5 12 18.5ZM17.2783 18.2905C15.7955 19.3659 13.9718 20 12 20C10.0281 20 8.20439 19.3659 6.72156 18.2904L6.52045 18.7178C6.13033 19.5468 6.73523 20.5 7.65148 20.5H16.3484C17.2646 20.5 17.8695 19.5468 17.4794 18.7177L17.2783 18.2905Z" fill="currentColor"/>
</svg>
