<svg width="100%" height="100%" viewBox="0 0 21 21" fill="currentColor" xmlns="http://www.w3.org/2000/svg">
<path fill-rule="evenodd" clip-rule="evenodd" d="M5.5 4.75C5.5 2.12665 7.62665 0 10.25 0C12.8734 0 15 2.12665 15 4.75V4.91666C15.668 5.26135 16.2624 5.72744 16.7542 6.28613L18.7815 4.66435C19.1049 4.40559 19.5769 4.45803 19.8357 4.78148C20.0944 5.10493 20.042 5.57689 19.7185 5.83565L17.5993 7.53107C17.9178 8.15734 18.1299 8.84755 18.2123 9.57821C18.25 9.91305 18.25 10.3111 18.25 11.1071V11.5H19.75C20.1642 11.5 20.5 11.8358 20.5 12.25C20.5 12.6642 20.1642 13 19.75 13H18.2153C18.1218 14.0052 17.8424 14.9564 17.4118 15.8189L19.7185 17.6643C20.042 17.9231 20.0944 18.3951 19.8357 18.7185C19.5769 19.042 19.1049 19.0944 18.7815 18.8357L16.6124 17.1004C15.1507 19.0148 12.8446 20.25 10.25 20.25C7.65539 20.25 5.34927 19.0148 3.88758 17.1004L1.71852 18.8357C1.39507 19.0944 0.923105 19.042 0.664348 18.7185C0.405591 18.3951 0.458032 17.9231 0.781479 17.6643L3.08824 15.8189C2.65758 14.9564 2.37815 14.0052 2.28469 13H0.75C0.335786 13 0 12.6642 0 12.25C0 11.8358 0.335786 11.5 0.75 11.5H2.25V11.1071C2.25 10.3111 2.25 9.91305 2.28773 9.57821C2.37005 8.84755 2.58222 8.15734 2.90075 7.53107L0.781479 5.83565C0.458032 5.57689 0.405591 5.10493 0.664348 4.78148C0.923105 4.45803 1.39507 4.40559 1.71852 4.66435L3.74575 6.28613C4.23763 5.72744 4.83197 5.26135 5.5 4.91666V4.75ZM10.25 1.5C11.9188 1.5 13.2938 2.75773 13.4788 4.37697C13.2961 4.33885 13.1103 4.30897 12.9218 4.28773C12.587 4.25 12.1889 4.25 11.3929 4.25H9.10714C8.31108 4.25 7.91305 4.25 7.57821 4.28773C7.38971 4.30897 7.20389 4.33885 7.02118 4.37697C7.20621 2.75773 8.58123 1.5 10.25 1.5ZM3.7783 9.74616C3.75238 9.97618 3.75 10.2703 3.75 11.1071V12.25C3.75 15.5862 6.26342 18.3354 9.5 18.7072V15.25C9.5 14.8358 9.83579 14.5 10.25 14.5C10.6642 14.5 11 14.8358 11 15.25V18.7072C14.2366 18.3354 16.75 15.5862 16.75 12.25V11.1071C16.75 10.2703 16.7476 9.97618 16.7217 9.74616C16.4866 7.65987 14.8401 6.01336 12.7538 5.7783C12.5238 5.75238 12.2297 5.75 11.3929 5.75H9.10714C8.27026 5.75 7.97618 5.75238 7.74616 5.7783C5.65987 6.01336 4.01336 7.65987 3.7783 9.74616Z" fill="currentColor"/>
</svg>
