<svg width="100%" height="100%" viewBox="0 0 484 278" fill="none" xmlns="http://www.w3.org/2000/svg">
<path d="M0.00585938 187.728V183.702C3.51556 183.565 6.13066 183.289 7.85106 182.876C9.57146 182.464 10.707 181.638 11.2576 180.399C11.8081 179.16 12.0834 177.302 12.0834 174.825V127.547C12.0834 125.07 11.8081 123.246 11.2576 122.076C10.707 120.838 9.57146 119.977 7.85106 119.496C6.13066 119.014 3.51556 118.739 0.00585938 118.67V114.644C3.65326 114.713 8.40156 114.782 14.2511 114.851C20.1694 114.919 27.0855 114.954 34.9995 114.954C37.4769 114.954 39.9543 114.954 42.4318 114.954C44.978 114.954 47.3866 114.919 49.6576 114.851C51.9973 114.782 54.1307 114.713 56.0576 114.644C56.0576 118.016 56.1952 121.388 56.4705 124.76C56.8146 128.064 57.2275 131.367 57.7092 134.67H53.5801C52.6167 130.61 51.4812 127.444 50.1737 125.173C48.935 122.833 47.3178 121.216 45.3221 120.322C43.3264 119.427 40.7457 118.98 37.5801 118.98H22.5092V175.031C22.5092 177.371 22.7156 179.16 23.1285 180.399C23.5414 181.638 24.3672 182.464 25.6059 182.876C26.9135 183.221 28.8404 183.393 31.3866 183.393H35.7221C40.1264 183.393 43.6705 182.842 46.3543 181.741C49.0382 180.571 51.2404 178.472 52.9608 175.444C54.75 172.416 56.4361 168.115 58.0189 162.541H62.1479C61.5973 166.67 61.1844 170.833 60.9092 175.031C60.6339 179.16 60.4963 183.393 60.4963 187.728C57.2619 187.59 53.5457 187.522 49.3479 187.522C45.2189 187.453 40.4016 187.418 34.8963 187.418C27.0511 187.418 20.1694 187.453 14.2511 187.522C8.40156 187.522 3.65326 187.59 0.00585938 187.728ZM19.2059 152.941V149.018H37.3737V152.941H19.2059ZM41.8124 166.154C41.4683 162.782 40.9178 160.167 40.1608 158.309C39.4038 156.382 38.2683 155.005 36.7543 154.18C35.2404 153.354 33.2102 152.941 30.664 152.941V149.018C34.1737 149.018 36.7199 148.021 38.3027 146.025C39.9543 143.96 41.021 140.554 41.5027 135.805H45.1156C44.8404 139.866 44.7027 142.962 44.7027 145.096C44.7715 147.229 44.8059 149.19 44.8059 150.98C44.8059 152.494 44.8059 153.973 44.8059 155.418C44.8748 156.795 44.9436 158.343 45.0124 160.064C45.15 161.715 45.2877 163.745 45.4253 166.154H41.8124ZM98.7319 189.173C93.5709 189.173 89.7167 187.694 87.1705 184.734C84.6242 181.707 83.3511 177.165 83.3511 171.109V138.593H70.964V134.67H83.3511V118.876C85.278 118.808 87.0672 118.67 88.7189 118.464C90.3709 118.188 91.8849 117.844 93.2609 117.431V134.67H111.325V138.593H93.2609V173.999C93.2609 177.302 93.9149 179.745 95.2219 181.328C96.5299 182.842 98.5249 183.599 101.209 183.599C103.687 183.599 105.717 182.808 107.3 181.225C108.951 179.642 110.19 177.302 111.016 174.205L114.216 175.134C113.183 179.952 111.394 183.496 108.848 185.767C106.371 188.038 102.999 189.173 98.7319 189.173ZM156.565 187.728V183.702C159.593 183.633 161.657 183.083 162.758 182.051C163.86 180.95 164.41 179.023 164.41 176.27V152.115C164.41 147.573 163.515 144.201 161.726 141.999C160.006 139.728 157.425 138.593 153.984 138.593C151.163 138.593 148.513 139.384 146.036 140.967C143.627 142.481 141.494 144.752 139.636 147.78L139.739 143.238C141.46 140.072 143.903 137.595 147.068 135.805C150.234 134.016 153.743 133.122 157.597 133.122C163.034 133.122 167.197 134.808 170.087 138.18C172.978 141.552 174.423 146.403 174.423 152.734V176.27C174.423 179.023 175.249 180.95 176.9 182.051C178.621 183.083 181.649 183.633 185.984 183.702V187.728C184.952 187.659 183.507 187.625 181.649 187.625C179.86 187.556 177.898 187.487 175.765 187.418C173.632 187.35 171.567 187.315 169.571 187.315C167.025 187.315 164.513 187.384 162.036 187.522C159.627 187.59 157.804 187.659 156.565 187.728ZM118.681 187.728V183.702C123.085 183.633 126.113 183.083 127.765 182.051C129.417 180.95 130.242 179.023 130.242 176.27V121.147C130.242 117.844 129.382 115.539 127.662 114.231C126.01 112.855 123.017 112.132 118.681 112.064V108.038C120.126 108.107 121.571 108.175 123.017 108.244C124.462 108.313 125.941 108.347 127.455 108.347C129.795 108.347 132.032 108.244 134.165 108.038C136.367 107.762 138.397 107.384 140.255 106.902V176.27C140.255 179.023 140.806 180.95 141.907 182.051C143.008 183.083 145.072 183.633 148.1 183.702V187.728C146.724 187.659 144.832 187.59 142.423 187.522C140.083 187.384 137.64 187.315 135.094 187.315C132.272 187.315 129.313 187.384 126.217 187.522C123.12 187.59 120.608 187.659 118.681 187.728ZM219.334 189.173C214.379 189.173 210.044 188.072 206.328 185.87C202.681 183.599 199.859 180.365 197.863 176.167C195.868 171.969 194.87 167.014 194.87 161.302C194.87 155.522 195.868 150.532 197.863 146.334C199.859 142.068 202.749 138.799 206.534 136.528C210.319 134.257 214.827 133.122 220.057 133.122C224.53 133.122 228.384 133.982 231.618 135.702C234.921 137.423 237.433 140.141 239.154 143.857C240.943 147.573 241.769 152.425 241.631 158.412H201.476L201.373 154.489H231.308C231.377 151.117 230.999 148.124 230.173 145.509C229.347 142.894 228.04 140.829 226.25 139.315C224.53 137.801 222.293 137.044 219.541 137.044C216.031 137.044 212.934 138.524 210.25 141.483C207.635 144.442 206.087 149.087 205.605 155.418L205.708 155.728C205.64 156.416 205.605 157.173 205.605 157.999C205.605 158.825 205.605 159.685 205.605 160.58C205.605 167.874 207.016 173.517 209.837 177.509C212.659 181.431 216.719 183.393 222.018 183.393C225.459 183.393 228.521 182.567 231.205 180.915C233.958 179.195 236.229 176.545 238.018 172.967L241.631 175.031C239.842 179.504 236.986 182.98 233.063 185.457C229.21 187.934 224.633 189.173 219.334 189.173ZM252.381 187.728V183.702C255.891 183.565 258.506 183.289 260.226 182.876C261.947 182.395 263.082 181.534 263.633 180.296C264.183 179.057 264.458 177.233 264.458 174.825V127.547C264.458 125.07 264.183 123.246 263.633 122.076C263.082 120.838 261.947 119.977 260.226 119.496C258.506 119.014 255.891 118.739 252.381 118.67V114.644C253.895 114.713 256.028 114.782 258.781 114.851C261.534 114.851 264.871 114.851 268.794 114.851C270.652 114.851 272.441 114.851 274.162 114.851C275.882 114.851 277.465 114.851 278.91 114.851C280.424 114.782 281.766 114.747 282.936 114.747C284.106 114.679 285.035 114.644 285.723 114.644C294.05 114.644 300.553 116.296 305.233 119.599C309.912 122.902 312.252 127.444 312.252 133.225C312.252 137.216 311.048 140.726 308.639 143.754C306.231 146.713 302.858 149.018 298.523 150.67C294.256 152.322 289.233 153.147 283.452 153.147H270.136V150.051H283.039C289.233 150.051 293.809 148.777 296.768 146.231C299.727 143.616 301.207 139.659 301.207 134.36C301.207 129.061 299.727 125.139 296.768 122.593C293.809 119.977 289.301 118.67 283.246 118.67H274.884V174.825C274.884 177.233 275.16 179.057 275.71 180.296C276.329 181.534 277.499 182.395 279.22 182.876C280.94 183.289 283.555 183.565 287.065 183.702V187.728C283.899 187.522 278.119 187.418 269.723 187.418C261.465 187.418 255.684 187.522 252.381 187.728ZM312.562 189.173C309.327 189.173 306.712 188.279 304.717 186.489C302.79 184.631 301.379 181.707 300.484 177.715L297.697 165.844C297.009 162.747 296.114 160.373 295.013 158.722C293.912 157.001 292.467 155.797 290.678 155.109C288.957 154.352 286.618 153.973 283.658 153.973H270.755V151.289H282.626C288.544 151.289 293.224 151.771 296.665 152.734C300.106 153.629 302.721 155.281 304.51 157.689C306.368 160.029 307.813 163.401 308.846 167.805L310.91 175.857C311.529 178.472 312.286 180.33 313.181 181.431C314.076 182.464 315.314 182.98 316.897 182.98C317.792 182.98 318.618 182.773 319.375 182.36C320.2 181.879 321.095 181.087 322.058 179.986L324.329 182.67C322.678 184.941 320.923 186.593 319.065 187.625C317.207 188.657 315.039 189.173 312.562 189.173ZM354.959 189.173C350.004 189.173 345.669 188.072 341.953 185.87C338.306 183.599 335.484 180.365 333.488 176.167C331.493 171.969 330.495 167.014 330.495 161.302C330.495 155.522 331.493 150.532 333.488 146.334C335.484 142.068 338.374 138.799 342.159 136.528C345.944 134.257 350.452 133.122 355.682 133.122C360.155 133.122 364.009 133.982 367.243 135.702C370.546 137.423 373.058 140.141 374.779 143.857C376.568 147.573 377.394 152.425 377.256 158.412H337.101L336.998 154.489H366.933C367.002 151.117 366.624 148.124 365.798 145.509C364.972 142.894 363.665 140.829 361.875 139.315C360.155 137.801 357.918 137.044 355.166 137.044C351.656 137.044 348.559 138.524 345.875 141.483C343.26 144.442 341.712 149.087 341.23 155.418L341.333 155.728C341.265 156.416 341.23 157.173 341.23 157.999C341.23 158.825 341.23 159.685 341.23 160.58C341.23 167.874 342.641 173.517 345.462 177.509C348.284 181.431 352.344 183.393 357.643 183.393C361.084 183.393 364.146 182.567 366.83 180.915C369.583 179.195 371.854 176.545 373.643 172.967L377.256 175.031C375.467 179.504 372.611 182.98 368.688 185.457C364.835 187.934 360.258 189.173 354.959 189.173ZM406.413 189.173C401.734 189.173 398.018 187.969 395.265 185.56C392.581 183.083 391.239 179.78 391.239 175.651C391.239 172.416 391.996 169.801 393.51 167.805C395.024 165.81 396.985 164.227 399.394 163.057C401.871 161.887 404.452 160.924 407.136 160.167C409.889 159.341 412.469 158.618 414.878 157.999C417.355 157.38 419.351 156.623 420.865 155.728C422.448 154.765 423.239 153.526 423.239 152.012V147.057C423.239 143.823 422.276 141.38 420.349 139.728C418.422 138.076 415.566 137.251 411.781 137.251C409.028 137.251 406.723 137.629 404.865 138.386C403.007 139.143 402.078 140.072 402.078 141.173C402.078 141.861 402.319 142.584 402.8 143.341C403.282 144.029 403.729 144.821 404.142 145.715C404.624 146.541 404.865 147.47 404.865 148.502C404.865 149.81 404.349 150.876 403.317 151.702C402.353 152.528 401.08 152.941 399.497 152.941C397.639 152.941 396.125 152.356 394.955 151.186C393.785 149.947 393.2 148.33 393.2 146.334C393.2 143.788 394.164 141.517 396.091 139.522C398.018 137.526 400.598 135.977 403.833 134.876C407.136 133.707 410.852 133.122 414.981 133.122C419.248 133.122 422.723 133.775 425.407 135.083C428.091 136.39 430.052 138.421 431.291 141.173C432.598 143.926 433.252 147.504 433.252 151.909V179.16C433.252 180.812 433.527 182.016 434.078 182.773C434.628 183.53 435.489 183.909 436.658 183.909C437.828 183.909 438.998 183.633 440.168 183.083C441.338 182.464 442.474 181.741 443.575 180.915L445.536 184.218C443.747 185.801 441.854 187.005 439.858 187.831C437.932 188.726 435.695 189.173 433.149 189.173C426.542 189.173 423.239 186.145 423.239 180.089C421.243 183.048 418.835 185.319 416.013 186.902C413.192 188.416 409.992 189.173 406.413 189.173ZM410.336 182.876C412.882 182.876 415.256 182.257 417.458 181.018C419.661 179.78 421.587 177.99 423.239 175.651V157.276C422.551 158.446 421.347 159.41 419.626 160.167C417.975 160.855 416.117 161.577 414.052 162.334C411.987 163.023 409.992 163.848 408.065 164.812C406.207 165.775 404.658 167.014 403.42 168.528C402.181 170.042 401.562 172.003 401.562 174.412C401.562 177.027 402.319 179.091 403.833 180.605C405.415 182.119 407.583 182.876 410.336 182.876ZM450.056 187.728V183.702C454.392 183.633 457.385 183.083 459.037 182.051C460.757 181.018 461.617 179.091 461.617 176.27V121.044C461.617 117.879 460.757 115.608 459.037 114.231C457.385 112.855 454.392 112.098 450.056 111.96V107.934C451.432 108.003 452.843 108.072 454.288 108.141C455.802 108.21 457.316 108.244 458.83 108.244C461.239 108.244 463.51 108.141 465.643 107.934C467.845 107.659 469.841 107.281 471.63 106.799V176.27C471.63 179.091 472.49 181.018 474.211 182.051C475.931 183.083 478.925 183.633 483.192 183.702V187.728C482.159 187.659 480.714 187.625 478.856 187.625C477.067 187.556 475.106 187.487 472.972 187.418C470.839 187.35 468.74 187.315 466.675 187.315C463.51 187.315 460.344 187.384 457.179 187.522C454.013 187.59 451.639 187.659 450.056 187.728Z" fill="currentColor"/>
<path d="M299.463 95.9388C328.221 132.11 349.265 169.713 360.059 201.238C365.457 217.005 368.273 231.196 368.239 242.899C368.205 254.604 365.326 263.687 359.473 269.454C353.619 275.221 345.171 277.299 334.73 275.914C324.291 274.53 311.979 269.694 298.577 261.813C271.78 246.055 240.808 218.233 212.05 182.061C183.293 145.89 162.249 108.287 151.454 76.7618C146.056 60.9951 143.24 46.8033 143.274 35.1006C143.308 23.3955 146.187 14.313 152.041 8.54569C157.895 2.77839 166.343 0.700595 176.784 2.0855C187.223 3.4701 199.534 8.30589 212.937 16.1868C239.734 31.9445 270.705 59.7668 299.463 95.9388Z" stroke="currentColor" stroke-width="3"/>
<path d="M286.161 231L287.303 238.719C288.325 245.624 293.186 251.035 299.388 252.172L306.323 253.444L299.388 254.715C293.186 255.853 288.325 261.264 287.303 268.168L286.161 275.888L285.019 268.168C283.998 261.264 279.136 255.853 272.934 254.715L266 253.444L272.934 252.172C279.136 251.035 283.998 245.624 285.019 238.719L286.161 231Z" fill="currentColor"/>
</svg>
