<svg width="100%" height="100%" viewBox="0 0 484 84" fill="none" xmlns="http://www.w3.org/2000/svg">
<path d="M0.00585938 81.7278V77.7018C3.51556 77.5648 6.13066 77.2888 7.85106 76.8758C9.57146 76.4638 10.707 75.6378 11.2576 74.3988C11.8081 73.1598 12.0834 71.3018 12.0834 68.8248V21.5468C12.0834 19.0698 11.8081 17.2458 11.2576 16.0758C10.707 14.8378 9.57146 13.9768 7.85106 13.4958C6.13066 13.0138 3.51556 12.7388 0.00585938 12.6698V8.64383C3.65326 8.71283 8.40156 8.78183 14.2511 8.85083C20.1694 8.91883 27.0855 8.95383 34.9995 8.95383C37.4769 8.95383 39.9543 8.95383 42.4318 8.95383C44.978 8.95383 47.3866 8.91883 49.6576 8.85083C51.9973 8.78183 54.1307 8.71283 56.0576 8.64383C56.0576 12.0158 56.1952 15.3878 56.4705 18.7598C56.8146 22.0638 57.2275 25.3668 57.7092 28.6698H53.5801C52.6167 24.6098 51.4812 21.4438 50.1737 19.1728C48.935 16.8328 47.3178 15.2158 45.3221 14.3218C43.3264 13.4268 40.7457 12.9798 37.5801 12.9798H22.5092V69.0308C22.5092 71.3708 22.7156 73.1598 23.1285 74.3988C23.5414 75.6378 24.3672 76.4638 25.6059 76.8758C26.9135 77.2208 28.8404 77.3928 31.3866 77.3928H35.7221C40.1264 77.3928 43.6705 76.8418 46.3543 75.7408C49.0382 74.5708 51.2404 72.4718 52.9608 69.4438C54.75 66.4158 56.4361 62.1148 58.0189 56.5408H62.1479C61.5973 60.6698 61.1844 64.8328 60.9092 69.0308C60.6339 73.1598 60.4963 77.3928 60.4963 81.7278C57.2619 81.5898 53.5457 81.5218 49.3479 81.5218C45.2189 81.4528 40.4016 81.4178 34.8963 81.4178C27.0511 81.4178 20.1694 81.4528 14.2511 81.5218C8.40156 81.5218 3.65326 81.5898 0.00585938 81.7278ZM19.2059 46.9408V43.0178H37.3737V46.9408H19.2059ZM41.8124 60.1538C41.4683 56.7818 40.9178 54.1668 40.1608 52.3088C39.4038 50.3818 38.2683 49.0048 36.7543 48.1798C35.2404 47.3538 33.2102 46.9408 30.664 46.9408V43.0178C34.1737 43.0178 36.7199 42.0208 38.3027 40.0248C39.9543 37.9598 41.021 34.5538 41.5027 29.8048H45.1156C44.8404 33.8658 44.7027 36.9618 44.7027 39.0958C44.7715 41.2288 44.8059 43.1898 44.8059 44.9798C44.8059 46.4938 44.8059 47.9728 44.8059 49.4178C44.8748 50.7948 44.9436 52.3428 45.0124 54.0638C45.15 55.7148 45.2877 57.7448 45.4253 60.1538H41.8124ZM98.7319 83.1728C93.5709 83.1728 89.7167 81.6938 87.1705 78.7338C84.6242 75.7068 83.3511 71.1648 83.3511 65.1088V32.5928H70.964V28.6698H83.3511V12.8758C85.278 12.8078 87.0672 12.6698 88.7189 12.4638C90.3709 12.1878 91.8849 11.8438 93.2609 11.4308V28.6698H111.325V32.5928H93.2609V67.9988C93.2609 71.3018 93.9149 73.7448 95.2219 75.3278C96.5299 76.8418 98.5249 77.5988 101.209 77.5988C103.687 77.5988 105.717 76.8078 107.3 75.2248C108.951 73.6418 110.19 71.3018 111.016 68.2048L114.216 69.1338C113.183 73.9518 111.394 77.4958 108.848 79.7668C106.371 82.0378 102.999 83.1728 98.7319 83.1728ZM156.565 81.7278V77.7018C159.593 77.6328 161.657 77.0828 162.758 76.0508C163.86 74.9498 164.41 73.0228 164.41 70.2698V46.1148C164.41 41.5728 163.515 38.2008 161.726 35.9988C160.006 33.7278 157.425 32.5928 153.984 32.5928C151.163 32.5928 148.513 33.3838 146.036 34.9668C143.627 36.4808 141.494 38.7518 139.636 41.7798L139.739 37.2378C141.46 34.0718 143.903 31.5948 147.068 29.8048C150.234 28.0158 153.743 27.1218 157.597 27.1218C163.034 27.1218 167.197 28.8078 170.087 32.1798C172.978 35.5518 174.423 40.4028 174.423 46.7338V70.2698C174.423 73.0228 175.249 74.9498 176.9 76.0508C178.621 77.0828 181.649 77.6328 185.984 77.7018V81.7278C184.952 81.6588 183.507 81.6248 181.649 81.6248C179.86 81.5558 177.898 81.4868 175.765 81.4178C173.632 81.3498 171.567 81.3148 169.571 81.3148C167.025 81.3148 164.513 81.3838 162.036 81.5218C159.627 81.5898 157.804 81.6588 156.565 81.7278ZM118.681 81.7278V77.7018C123.085 77.6328 126.113 77.0828 127.765 76.0508C129.417 74.9498 130.242 73.0228 130.242 70.2698V15.1468C130.242 11.8438 129.382 9.53883 127.662 8.23083C126.01 6.85484 123.017 6.13183 118.681 6.06383V2.03783C120.126 2.10683 121.571 2.17484 123.017 2.24384C124.462 2.31284 125.941 2.34683 127.455 2.34683C129.795 2.34683 132.032 2.24383 134.165 2.03783C136.367 1.76183 138.397 1.38382 140.255 0.901825V70.2698C140.255 73.0228 140.806 74.9498 141.907 76.0508C143.008 77.0828 145.072 77.6328 148.1 77.7018V81.7278C146.724 81.6588 144.832 81.5898 142.423 81.5218C140.083 81.3838 137.64 81.3148 135.094 81.3148C132.272 81.3148 129.313 81.3838 126.217 81.5218C123.12 81.5898 120.608 81.6588 118.681 81.7278ZM219.334 83.1728C214.379 83.1728 210.044 82.0718 206.328 79.8698C202.681 77.5988 199.859 74.3648 197.863 70.1668C195.868 65.9688 194.87 61.0138 194.87 55.3018C194.87 49.5218 195.868 44.5318 197.863 40.3338C199.859 36.0678 202.749 32.7988 206.534 30.5278C210.319 28.2568 214.827 27.1218 220.057 27.1218C224.53 27.1218 228.384 27.9818 231.618 29.7018C234.921 31.4228 237.433 34.1408 239.154 37.8568C240.943 41.5728 241.769 46.4248 241.631 52.4118H201.476L201.373 48.4888H231.308C231.377 45.1168 230.999 42.1238 230.173 39.5088C229.347 36.8938 228.04 34.8288 226.25 33.3148C224.53 31.8008 222.293 31.0438 219.541 31.0438C216.031 31.0438 212.934 32.5238 210.25 35.4828C207.635 38.4418 206.087 43.0868 205.605 49.4178L205.708 49.7278C205.64 50.4158 205.605 51.1728 205.605 51.9988C205.605 52.8248 205.605 53.6848 205.605 54.5798C205.605 61.8738 207.016 67.5168 209.837 71.5088C212.659 75.4308 216.719 77.3928 222.018 77.3928C225.459 77.3928 228.521 76.5668 231.205 74.9148C233.958 73.1948 236.229 70.5448 238.018 66.9668L241.631 69.0308C239.842 73.5038 236.986 76.9798 233.063 79.4568C229.21 81.9338 224.633 83.1728 219.334 83.1728ZM252.381 81.7278V77.7018C255.891 77.5648 258.506 77.2888 260.226 76.8758C261.947 76.3948 263.082 75.5338 263.633 74.2958C264.183 73.0568 264.458 71.2328 264.458 68.8248V21.5468C264.458 19.0698 264.183 17.2458 263.633 16.0758C263.082 14.8378 261.947 13.9768 260.226 13.4958C258.506 13.0138 255.891 12.7388 252.381 12.6698V8.64383C253.895 8.71283 256.028 8.78183 258.781 8.85083C261.534 8.85083 264.871 8.85083 268.794 8.85083C270.652 8.85083 272.441 8.85083 274.162 8.85083C275.882 8.85083 277.465 8.85083 278.91 8.85083C280.424 8.78183 281.766 8.74683 282.936 8.74683C284.106 8.67883 285.035 8.64383 285.723 8.64383C294.05 8.64383 300.553 10.2958 305.233 13.5988C309.912 16.9018 312.252 21.4438 312.252 27.2248C312.252 31.2158 311.048 34.7258 308.639 37.7538C306.231 40.7128 302.858 43.0178 298.523 44.6698C294.256 46.3218 289.233 47.1468 283.452 47.1468H270.136V44.0508H283.039C289.233 44.0508 293.809 42.7768 296.768 40.2308C299.727 37.6158 301.207 33.6588 301.207 28.3598C301.207 23.0608 299.727 19.1388 296.768 16.5928C293.809 13.9768 289.301 12.6698 283.246 12.6698H274.884V68.8248C274.884 71.2328 275.16 73.0568 275.71 74.2958C276.329 75.5338 277.499 76.3948 279.22 76.8758C280.94 77.2888 283.555 77.5648 287.065 77.7018V81.7278C283.899 81.5218 278.119 81.4178 269.723 81.4178C261.465 81.4178 255.684 81.5218 252.381 81.7278ZM312.562 83.1728C309.327 83.1728 306.712 82.2788 304.717 80.4888C302.79 78.6308 301.379 75.7068 300.484 71.7148L297.697 59.8438C297.009 56.7468 296.114 54.3728 295.013 52.7218C293.912 51.0008 292.467 49.7968 290.678 49.1088C288.957 48.3518 286.618 47.9728 283.658 47.9728H270.755V45.2888H282.626C288.544 45.2888 293.224 45.7708 296.665 46.7338C300.106 47.6288 302.721 49.2808 304.51 51.6888C306.368 54.0288 307.813 57.4008 308.846 61.8048L310.91 69.8568C311.529 72.4718 312.286 74.3298 313.181 75.4308C314.076 76.4638 315.314 76.9798 316.897 76.9798C317.792 76.9798 318.618 76.7728 319.375 76.3598C320.2 75.8788 321.095 75.0868 322.058 73.9858L324.329 76.6698C322.678 78.9408 320.923 80.5928 319.065 81.6248C317.207 82.6568 315.039 83.1728 312.562 83.1728ZM354.959 83.1728C350.004 83.1728 345.669 82.0718 341.953 79.8698C338.306 77.5988 335.484 74.3648 333.488 70.1668C331.493 65.9688 330.495 61.0138 330.495 55.3018C330.495 49.5218 331.493 44.5318 333.488 40.3338C335.484 36.0678 338.374 32.7988 342.159 30.5278C345.944 28.2568 350.452 27.1218 355.682 27.1218C360.155 27.1218 364.009 27.9818 367.243 29.7018C370.546 31.4228 373.058 34.1408 374.779 37.8568C376.568 41.5728 377.394 46.4248 377.256 52.4118H337.101L336.998 48.4888H366.933C367.002 45.1168 366.624 42.1238 365.798 39.5088C364.972 36.8938 363.665 34.8288 361.875 33.3148C360.155 31.8008 357.918 31.0438 355.166 31.0438C351.656 31.0438 348.559 32.5238 345.875 35.4828C343.26 38.4418 341.712 43.0868 341.23 49.4178L341.333 49.7278C341.265 50.4158 341.23 51.1728 341.23 51.9988C341.23 52.8248 341.23 53.6848 341.23 54.5798C341.23 61.8738 342.641 67.5168 345.462 71.5088C348.284 75.4308 352.344 77.3928 357.643 77.3928C361.084 77.3928 364.146 76.5668 366.83 74.9148C369.583 73.1948 371.854 70.5448 373.643 66.9668L377.256 69.0308C375.467 73.5038 372.611 76.9798 368.688 79.4568C364.835 81.9338 360.258 83.1728 354.959 83.1728ZM406.413 83.1728C401.734 83.1728 398.018 81.9688 395.265 79.5598C392.581 77.0828 391.239 73.7798 391.239 69.6508C391.239 66.4158 391.996 63.8008 393.51 61.8048C395.024 59.8098 396.985 58.2268 399.394 57.0568C401.871 55.8868 404.452 54.9238 407.136 54.1668C409.889 53.3408 412.469 52.6178 414.878 51.9988C417.355 51.3798 419.351 50.6228 420.865 49.7278C422.448 48.7648 423.239 47.5258 423.239 46.0118V41.0568C423.239 37.8228 422.276 35.3798 420.349 33.7278C418.422 32.0758 415.566 31.2508 411.781 31.2508C409.028 31.2508 406.723 31.6288 404.865 32.3858C403.007 33.1428 402.078 34.0718 402.078 35.1728C402.078 35.8608 402.319 36.5838 402.8 37.3408C403.282 38.0288 403.729 38.8208 404.142 39.7148C404.624 40.5408 404.865 41.4698 404.865 42.5018C404.865 43.8098 404.349 44.8758 403.317 45.7018C402.353 46.5278 401.08 46.9408 399.497 46.9408C397.639 46.9408 396.125 46.3558 394.955 45.1858C393.785 43.9468 393.2 42.3298 393.2 40.3338C393.2 37.7878 394.164 35.5168 396.091 33.5218C398.018 31.5258 400.598 29.9768 403.833 28.8758C407.136 27.7068 410.852 27.1218 414.981 27.1218C419.248 27.1218 422.723 27.7748 425.407 29.0828C428.091 30.3898 430.052 32.4208 431.291 35.1728C432.598 37.9258 433.252 41.5038 433.252 45.9088V73.1598C433.252 74.8118 433.527 76.0158 434.078 76.7728C434.628 77.5298 435.489 77.9088 436.658 77.9088C437.828 77.9088 438.998 77.6328 440.168 77.0828C441.338 76.4638 442.474 75.7408 443.575 74.9148L445.536 78.2178C443.747 79.8008 441.854 81.0048 439.858 81.8308C437.932 82.7258 435.695 83.1728 433.149 83.1728C426.542 83.1728 423.239 80.1448 423.239 74.0888C421.243 77.0478 418.835 79.3188 416.013 80.9018C413.192 82.4158 409.992 83.1728 406.413 83.1728ZM410.336 76.8758C412.882 76.8758 415.256 76.2568 417.458 75.0178C419.661 73.7798 421.587 71.9898 423.239 69.6508V51.2758C422.551 52.4458 421.347 53.4098 419.626 54.1668C417.975 54.8548 416.117 55.5768 414.052 56.3338C411.987 57.0228 409.992 57.8478 408.065 58.8118C406.207 59.7748 404.658 61.0138 403.42 62.5278C402.181 64.0418 401.562 66.0028 401.562 68.4118C401.562 71.0268 402.319 73.0908 403.833 74.6048C405.415 76.1188 407.583 76.8758 410.336 76.8758ZM450.056 81.7278V77.7018C454.392 77.6328 457.385 77.0828 459.037 76.0508C460.757 75.0178 461.617 73.0908 461.617 70.2698V15.0438C461.617 11.8788 460.757 9.60783 459.037 8.23083C457.385 6.85484 454.392 6.09784 450.056 5.95984V1.93384C451.432 2.00284 452.843 2.07184 454.288 2.14084C455.802 2.20984 457.316 2.24384 458.83 2.24384C461.239 2.24384 463.51 2.14084 465.643 1.93384C467.845 1.65884 469.841 1.28083 471.63 0.798828V70.2698C471.63 73.0908 472.49 75.0178 474.211 76.0508C475.931 77.0828 478.925 77.6328 483.192 77.7018V81.7278C482.159 81.6588 480.714 81.6248 478.856 81.6248C477.067 81.5558 475.106 81.4868 472.972 81.4178C470.839 81.3498 468.74 81.3148 466.675 81.3148C463.51 81.3148 460.344 81.3838 457.179 81.5218C454.013 81.5898 451.639 81.6588 450.056 81.7278Z" fill="currentColor"/>
</svg>
