<svg width="100%" height="100%" viewBox="0 0 21 21" fill="currentColor" xmlns="http://www.w3.org/2000/svg">
<path fill-rule="evenodd" clip-rule="evenodd" d="M0 10.0802C0 4.51321 4.51297 0.000240563 10.08 0.000240563C10.8206 -0.00348017 11.5591 0.0804364 12.28 0.250241C9.42684 1.06715 7.55951 3.7996 7.83498 6.75459C8.11045 9.70958 10.4507 12.0498 13.4057 12.3253C16.3606 12.6007 19.0931 10.7334 19.91 7.88024C20.0798 8.60115 20.1637 9.33961 20.16 10.0802C20.16 15.6473 15.647 20.1602 10.08 20.1602C4.51297 20.1602 0 15.6473 0 10.0802ZM8.54296 11.6164C5.92799 9.00392 5.54836 4.89792 7.64 1.85024C3.70314 3.01949 1.14688 6.81453 1.54276 10.9022C1.93865 14.9899 5.17565 18.2239 9.26373 18.616C13.3518 19.008 17.1444 16.4482 18.31 12.5102C15.2643 14.6047 11.1579 14.229 8.54296 11.6164Z" fill="currentColor"/>
</svg>
