<svg width="100%" height="100%" viewBox="0 0 18 17" fill="none" xmlns="http://www.w3.org/2000/svg">
<path fill-rule="evenodd" clip-rule="evenodd" d="M9 0.25C7.48122 0.25 6.25 1.48122 6.25 3V10.25H3.25C1.59315 10.25 0.25 11.5931 0.25 13.25C0.25 14.9069 1.59315 16.25 3.25 16.25H4C6.07107 16.25 7.75 14.5711 7.75 12.5V5.25H16.25V9.25H13C11.4812 9.25 10.25 10.4812 10.25 12C10.25 13.5188 11.4812 14.75 13 14.75H14C16.0711 14.75 17.75 13.0711 17.75 11V3C17.75 1.48122 16.5188 0.25 15 0.25H9ZM1.75 13.25C1.75 12.4216 2.42157 11.75 3.25 11.75H6.25V12.5C6.25 13.7426 5.24264 14.75 4 14.75H3.25C2.42157 14.75 1.75 14.0784 1.75 13.25ZM15 1.75C15.6904 1.75 16.25 2.30964 16.25 3V3.75H7.75V3C7.75 2.30964 8.30964 1.75 9 1.75H15ZM11.75 12C11.75 11.3096 12.3096 10.75 13 10.75H16.25V11C16.25 12.2426 15.2426 13.25 14 13.25H13C12.3096 13.25 11.75 12.6904 11.75 12Z" fill="currentColor"/>
</svg>
