<svg width="100%" height="100%" viewBox="0 0 24 24" fill="none" xmlns="http://www.w3.org/2000/svg">
<path fill-rule="evenodd" clip-rule="evenodd" d="M18.8613 5.93425C18.8613 4.2382 17.341 2.94645 15.6672 3.22035L12.2021 3.78737C12.0684 3.80925 11.9321 3.80925 11.7984 3.78737L8.33321 3.22035C6.65943 2.94646 5.13912 4.2382 5.13912 5.93425V7.82771C5.13912 7.99116 5.10718 8.15058 5.04721 8.29817C4.96488 8.50079 4.82988 8.68077 4.65234 8.81765L2.86655 10.1945C1.54397 11.2141 2.26505 13.3304 3.93507 13.3304H20.0654C21.7354 13.3304 22.4565 11.2141 21.1339 10.1945L19.3481 8.81765C19.1706 8.68077 19.0356 8.50079 18.9532 8.29817C18.8933 8.15058 18.8613 7.99116 18.8613 7.82771V5.93425ZM15.9095 4.70066C16.6703 4.57616 17.3613 5.16332 17.3613 5.93425L17.3613 7.8305H6.63912L6.63912 5.93425C6.63912 5.16332 7.33017 4.57616 8.09098 4.70066L11.5561 5.26768C11.8502 5.31581 12.1502 5.31581 12.4443 5.26768L15.9095 4.70066ZM6.19219 9.3305H17.8083C17.9749 9.58589 18.1848 9.8148 18.4322 10.0056L20.218 11.3824C20.407 11.5281 20.304 11.8304 20.0654 11.8304H3.93507C3.69649 11.8304 3.59348 11.5281 3.78242 11.3824L5.56821 10.0056C5.81567 9.8148 6.02557 9.58589 6.19219 9.3305Z" fill="currentColor"/>
<path fill-rule="evenodd" clip-rule="evenodd" d="M7.5 14.3306C5.70507 14.3306 4.25 15.7856 4.25 17.5806C4.25 19.3755 5.70507 20.8306 7.5 20.8306C9.1121 20.8306 10.4501 19.6568 10.7059 18.1173C10.7729 18.0943 10.8456 18.0703 10.9221 18.0463C11.3097 17.925 11.7181 17.8306 12 17.8306C12.2819 17.8306 12.6903 17.925 13.0779 18.0463C13.1544 18.0703 13.2271 18.0943 13.2941 18.1173C13.5499 19.6568 14.8879 20.8306 16.5 20.8306C18.2949 20.8306 19.75 19.3755 19.75 17.5806C19.75 15.7856 18.2949 14.3306 16.5 14.3306C15.0547 14.3306 13.8298 15.274 13.4074 16.5786C13.0059 16.4587 12.4748 16.3306 12 16.3306C11.5252 16.3306 10.9941 16.4587 10.5926 16.5786C10.1702 15.274 8.94528 14.3306 7.5 14.3306ZM5.75 17.5806C5.75 16.6141 6.5335 15.8306 7.5 15.8306C8.4665 15.8306 9.25 16.6141 9.25 17.5806C9.25 18.5471 8.4665 19.3306 7.5 19.3306C6.5335 19.3306 5.75 18.5471 5.75 17.5806ZM14.75 17.5806C14.75 16.6141 15.5335 15.8306 16.5 15.8306C17.4665 15.8306 18.25 16.6141 18.25 17.5806C18.25 18.5471 17.4665 19.3306 16.5 19.3306C15.5335 19.3306 14.75 18.5471 14.75 17.5806Z" fill="currentColor"/>
</svg>
