<svg width="100%" height="100%" viewBox="0 0 17 20" fill="none" xmlns="http://www.w3.org/2000/svg">
<path d="M14.8885 20H12.1115C10.6885 20 10 19.1179 10 17.2923V2.70769C10 0.882051 10.6885 0 12.1115 0H14.8885C16.3115 0 17 0.882051 17 2.70769V17.2923C17 19.1179 16.3115 20 14.8885 20ZM12.1115 1.53846C11.2852 1.53846 11.1475 1.81538 11.1475 2.70769V17.2923C11.1475 18.1846 11.2776 18.4615 12.1115 18.4615H14.8885C15.7148 18.4615 15.8525 18.1846 15.8525 17.2923V2.70769C15.8525 1.81538 15.7224 1.53846 14.8885 1.53846H12.1115Z" fill="currentColor"/>
<path d="M4.88852 20H2.11147C0.688524 20 0 19.1179 0 17.2923V2.70769C0 0.882051 0.688524 0 2.11147 0H4.88852C6.31147 0 7 0.882051 7 2.70769V17.2923C7 19.1179 6.31147 20 4.88852 20ZM2.11147 1.53846C1.28525 1.53846 1.14754 1.81538 1.14754 2.70769V17.2923C1.14754 18.1846 1.2776 18.4615 2.11147 18.4615H4.88852C5.71475 18.4615 5.85246 18.1846 5.85246 17.2923V2.70769C5.85246 1.81538 5.7224 1.53846 4.88852 1.53846H2.11147Z" fill="currentColor"/>
</svg>
