<svg width="24" height="24" viewBox="0 0 24 24" fill="none" xmlns="http://www.w3.org/2000/svg">
<path d="M22.7506 11.9999C22.7506 17.1999 18.5206 21.4199 13.3306 21.4199C11.4606 21.4199 9.65062 20.8699 8.09062 19.8299C7.75062 19.5999 7.65062 19.1299 7.88063 18.7899C8.11062 18.4499 8.58062 18.3499 8.92062 18.5799C10.2206 19.4499 11.7506 19.9099 13.3206 19.9099C17.6906 19.9099 21.2406 16.3599 21.2406 11.9899C21.2406 7.61992 17.6906 4.06992 13.3206 4.06992C8.95062 4.06992 5.40062 7.62992 5.40062 11.9999C5.40062 12.9199 5.53062 13.8199 5.79062 14.6699C5.91062 15.0699 5.69062 15.4899 5.29062 15.6099C4.89062 15.7299 4.47062 15.5099 4.35062 15.1099C4.05062 14.1099 3.89063 13.0699 3.89063 11.9999C3.89063 6.79992 8.12063 2.57992 13.3106 2.57992C18.5006 2.57992 22.7506 6.79992 22.7506 11.9999Z" fill="currentColor"/>
<path d="M6.07012 16.1301C6.07012 16.3001 6.01012 16.4801 5.89012 16.6201C5.61012 16.9401 5.14012 16.9701 4.83012 16.7001L1.51012 13.8101C1.20012 13.5401 1.16012 13.0601 1.44012 12.7501C1.71012 12.4401 2.19012 12.4101 2.50012 12.6801L5.81012 15.5701C5.98012 15.7201 6.07012 15.9301 6.07012 16.1301Z" fill="currentColor"/>
<path d="M8.53013 12.7599C8.53013 12.9099 8.48013 13.0699 8.39013 13.1999L5.92013 16.5799C5.68013 16.9099 5.21013 16.9799 4.88013 16.7399C4.54013 16.4999 4.47013 16.0299 4.71013 15.6899L7.17013 12.3199C7.41013 11.9899 7.88013 11.9099 8.22013 12.1599C8.43013 12.2999 8.53013 12.5299 8.53013 12.7599Z" fill="currentColor"/>
</svg>
