<svg width="100%" height="100%" viewBox="0 0 24 24" fill="none" xmlns="http://www.w3.org/2000/svg">
<path fill-rule="evenodd" clip-rule="evenodd" d="M20.4772 5.08643C20.4677 4.23295 19.816 3.57618 18.9626 3.56015C17.0054 3.52339 14.0227 4.12743 10.6479 6.45007C9.5693 7.19241 8.44957 8.11109 7.31015 9.24179C6.54479 10.0013 6.03966 10.5896 5.72996 11.0393C5.46411 11.4253 5.38528 11.6485 5.36507 11.7494C5.4788 11.8033 5.70228 11.8575 6.07498 11.8827C6.58887 11.9175 7.17399 11.8915 7.80451 11.8636C8.14465 11.8485 8.49801 11.8328 8.86053 11.8258C9.34594 11.8164 9.84284 11.8245 10.2782 11.8904C10.6862 11.9522 11.1873 12.0841 11.5405 12.44C11.8937 12.796 12.0218 13.2981 12.0804 13.7065C12.143 14.1424 12.1473 14.6394 12.1342 15.1247C12.1244 15.4871 12.106 15.8404 12.0883 16.1804C12.0555 16.8107 12.025 17.3956 12.0559 17.9097C12.0782 18.2826 12.1307 18.5065 12.1837 18.6206C12.2848 18.6012 12.5086 18.5241 12.8966 18.2612C13.3487 17.955 13.9408 17.4544 14.7062 16.6949C19.407 12.03 20.5058 7.66574 20.4772 5.08643ZM18.9907 2.06042C20.655 2.09167 21.9586 3.40537 21.9771 5.06979C22.0015 7.26709 21.3279 10.3758 19.0502 13.802C19.213 14.1161 19.3076 14.4724 19.3502 14.8353C19.4193 15.4234 19.3612 16.094 19.1799 16.7981C18.8192 18.199 17.9533 19.8017 16.4672 21.2874C16.1987 21.6169 15.8019 21.8481 15.3786 21.9102C14.9086 21.9791 14.3638 21.8365 14.0053 21.3443C13.6759 20.8923 13.6027 20.2772 13.6926 19.5954C13.6955 19.5728 13.6987 19.5501 13.702 19.5272C13.1744 19.8799 12.6477 20.1245 12.1399 20.1265C11.8594 20.1275 11.5879 20.0541 11.3503 19.8935C11.1191 19.7374 10.9625 19.5276 10.856 19.3196C10.6539 18.9246 10.585 18.4397 10.5586 17.9995C10.5229 17.4045 10.5606 16.6653 10.5955 15.9806C10.6117 15.6635 10.6273 15.3581 10.6347 15.0841C10.6473 14.6193 10.6396 14.2257 10.5957 13.9198C10.5495 13.5986 10.4801 13.5025 10.476 13.4969C10.4704 13.4928 10.3744 13.4221 10.0536 13.3735C9.74803 13.3272 9.35448 13.3165 8.88964 13.3255C8.61557 13.3308 8.31005 13.3441 7.99286 13.3578C7.30787 13.3875 6.56844 13.4195 5.97368 13.3793C5.53373 13.3495 5.04941 13.2768 4.65591 13.0717C4.44872 12.9637 4.2402 12.8054 4.08581 12.5731C3.92708 12.3342 3.85574 12.0621 3.85896 11.7817C3.86472 11.2798 4.10771 10.7613 4.45777 10.2425C4.44395 10.2443 4.4302 10.2461 4.41652 10.2478C3.73396 10.3324 3.11946 10.2545 2.66998 9.92166C2.18064 9.55935 2.04221 9.01346 2.11472 8.54398C2.18002 8.12115 2.41428 7.72619 2.74581 7.46021C4.24288 5.98555 5.85225 5.13204 7.25586 4.78208C7.96128 4.6062 8.63239 4.5533 9.21991 4.62689C9.57447 4.6713 9.92238 4.76534 10.2302 4.92402C13.6778 2.66845 16.7953 2.01918 18.9907 2.06042ZM8.60066 6.09576C8.31358 6.10291 7.9835 6.14658 7.61874 6.23752C6.49147 6.51859 5.10278 7.2346 3.76958 8.55736C3.74447 8.58228 3.71762 8.60539 3.68924 8.62652C3.65275 8.65369 3.62286 8.69782 3.60741 8.73691C3.6838 8.76447 3.8673 8.80438 4.23201 8.75918C4.70331 8.70076 5.39094 8.50923 6.35067 8.08115C7.1073 7.33718 7.85907 6.67816 8.60066 6.09576ZM15.874 17.6779C15.4385 18.6343 15.2417 19.3205 15.1797 19.7913C15.1317 20.1556 15.1702 20.3394 15.1972 20.416C15.2364 20.4009 15.2807 20.3713 15.3082 20.3351C15.3295 20.3069 15.3528 20.2802 15.378 20.2553C16.7109 18.9323 17.4376 17.5491 17.7273 16.424C17.821 16.06 17.8672 15.7302 17.8766 15.4432C17.2885 16.1803 16.6237 16.927 15.874 17.6779Z" fill="currentColor"/>
<path fill-rule="evenodd" clip-rule="evenodd" d="M17.0388 7.68777C16.8428 7.88228 16.5262 7.88107 16.3317 7.68506C16.1372 7.48905 16.1384 7.17247 16.3344 6.97796C16.5304 6.78345 16.847 6.78466 17.0415 6.98067C17.236 7.17668 17.2348 7.49326 17.0388 7.68777ZM18.0954 8.7525C17.3113 9.53054 16.045 9.52568 15.2669 8.74164C14.4889 7.95759 14.4938 6.69127 15.2778 5.91323C16.0619 5.13519 17.3282 5.14005 18.1062 5.92409C18.8843 6.70814 18.8794 7.97446 18.0954 8.7525ZM7.73922 15.3526C8.21064 15.3545 8.59134 15.7381 8.58953 16.2095C8.58805 16.5945 8.32913 16.9308 7.95737 17.0306L6.66497 17.3778C6.64261 17.3838 6.62853 17.3819 6.61845 17.379C6.60612 17.3754 6.59179 17.3676 6.5788 17.3545C6.5658 17.3414 6.55811 17.327 6.55465 17.3147C6.55182 17.3046 6.55004 17.2905 6.55622 17.2682L6.91328 15.9785C7.01599 15.6075 7.35428 15.3512 7.73922 15.3526ZM10.0895 16.2153C10.0945 14.9154 9.04483 13.8576 7.74498 13.8527C6.68363 13.8486 5.75085 14.5554 5.46766 15.5783L5.1106 16.8679C4.78256 18.0528 5.86673 19.1453 7.05409 18.8264L8.34648 18.4793C9.37151 18.2039 10.0854 17.2766 10.0895 16.2153Z" fill="currentColor"/>
</svg>
