<svg width="100%" height="100%" viewBox="0 0 32 34" fill="none" xmlns="http://www.w3.org/2000/svg">
<path d="M13.6104 19.8207C13.7448 19.9551 13.8296 20.1389 13.8296 20.351L13.8296 28.9353C13.8296 29.3454 13.4902 29.6848 13.0801 29.6848C12.67 29.6848 12.3305 29.3454 12.3305 28.9353L12.3305 21.1006L4.4958 21.1006C4.08568 21.1006 3.74627 20.7612 3.74627 20.351C3.74627 19.9409 4.08568 19.6015 4.4958 19.6015L13.0801 19.6015C13.2922 19.6015 13.4761 19.6863 13.6104 19.8207Z" fill="currentColor"/>
<path d="M13.4915 19.941C13.7814 20.2309 13.7814 20.7118 13.4915 21.0017L1.59088 32.9023C1.30096 33.1922 0.820131 33.1922 0.530217 32.9023C0.240303 32.6124 0.240303 32.1315 0.530217 31.8416L12.4308 19.941C12.7207 19.6511 13.2016 19.6511 13.4915 19.941Z" fill="currentColor"/>
<path d="M17.4599 14.5113C17.3256 14.377 17.2407 14.1931 17.2407 13.981L17.2407 5.39672C17.2407 4.9866 17.5801 4.64719 17.9902 4.64719C18.4004 4.64719 18.7398 4.9866 18.7398 5.39672L18.7398 13.2315L26.5745 13.2315C26.9846 13.2315 27.324 13.5709 27.324 13.981C27.324 14.3911 26.9846 14.7305 26.5745 14.7305L17.9902 14.7305C17.7781 14.7305 17.5943 14.6457 17.4599 14.5113Z" fill="currentColor"/>
<path d="M17.5788 14.391C17.2889 14.1011 17.2889 13.6203 17.5788 13.3304L29.4794 1.42974C29.7693 1.13983 30.2502 1.13983 30.5401 1.42974C30.83 1.71966 30.83 2.20049 30.5401 2.4904L18.6395 14.391C18.3496 14.6809 17.8687 14.6809 17.5788 14.391Z" fill="currentColor"/>
</svg>
