<svg width="100%" height="100%" viewBox="0 0 16 19" fill="none" xmlns="http://www.w3.org/2000/svg">
<path fill-rule="evenodd" clip-rule="evenodd" d="M10.998 7.75349L11.8615 9.94899L12.4063 9.63444C13.2433 9.15119 14.3136 9.43797 14.7969 10.275C15.2801 11.112 14.9933 12.1823 14.1563 12.6655L13.7233 12.9155C13.6037 12.9846 13.5628 13.1375 13.6318 13.257L14.8818 15.4221C15.365 16.2591 15.0783 17.3294 14.2412 17.8126L13.3752 18.3126C12.5382 18.7959 11.4679 18.5091 10.9847 17.6721L9.73468 15.507C9.66564 15.3875 9.51274 15.3465 9.39317 15.4155L8.96025 15.6655C8.51788 15.9209 8.01036 15.9612 7.55878 15.8189C7.10696 15.9615 6.59904 15.9214 6.15636 15.6658L5.72335 15.4158C5.60378 15.3467 5.45088 15.3877 5.38185 15.5073L4.13185 17.6723C3.6486 18.5094 2.57831 18.7961 1.7413 18.3129L0.875275 17.8129C0.0382634 17.3296 -0.248519 16.2594 0.234731 15.4223L1.48473 13.2573C1.55377 13.1377 1.5128 12.9848 1.39322 12.9158L0.9603 12.6658C0.123288 12.1826 -0.163494 11.1123 0.319755 10.2753C0.803005 9.43827 1.87329 9.15149 2.7103 9.63474L3.25504 9.94924L4.11864 7.7534L2.31265 5.48547C1.96684 5.0512 1.84758 4.47861 1.99126 3.9424L2.69997 1.29744C2.95012 0.363872 3.90971 -0.190147 4.84328 0.0600014L7.48823 0.768716C7.51191 0.775059 7.53539 0.781882 7.55866 0.789173C7.58167 0.781975 7.60489 0.775235 7.62829 0.768964L10.2732 0.0602493C11.2068 -0.189899 12.1664 0.364122 12.4166 1.29769L13.1253 3.94264C13.2689 4.47886 13.1497 5.05145 12.8039 5.48571L10.998 7.75349ZM4.14886 1.68567C4.1846 1.5523 4.32168 1.47315 4.45505 1.50889L7.1 2.2176C7.17661 2.23813 7.23893 2.29378 7.26795 2.36759L10.5479 10.7074L9.06855 11.5615L3.48606 4.55106C3.43666 4.48903 3.41962 4.40723 3.44015 4.33062L4.14886 1.68567ZM10.3641 6.14162L11.6305 4.55131C11.6799 4.48927 11.6969 4.40748 11.6764 4.33087L10.9677 1.68592C10.9319 1.55255 10.7948 1.4734 10.6615 1.50914L8.74422 2.02287L10.3641 6.14162ZM6.33813 14.0462C6.34888 13.868 6.3868 13.6924 6.45019 13.526L1.9603 10.9338C1.84073 10.8647 1.68783 10.9057 1.61879 11.0253C1.54976 11.1449 1.59073 11.2978 1.7103 11.3668L2.14322 11.6167C2.98024 12.1 3.26702 13.1703 2.78377 14.0073L1.53377 16.1723C1.46473 16.2919 1.5057 16.4448 1.62528 16.5139L2.4913 17.0139C2.61087 17.0829 2.76377 17.0419 2.83281 16.9223L4.08281 14.7573C4.54039 13.9647 5.5243 13.6655 6.33813 14.0462ZM7.55805 12.4336L7.75498 12.3199L7.55836 12.073L7.36154 12.3201L7.55805 12.4336ZM6.59962 10.869L5.19759 9.10834L4.56861 10.7076L6.04797 11.5617L6.59962 10.869ZM13.1563 10.9335C13.2759 10.8644 13.4288 10.9054 13.4978 11.025C13.5669 11.1446 13.5259 11.2975 13.4063 11.3665L12.9733 11.6165C12.1363 12.0997 11.8495 13.17 12.3328 14.007L13.5828 16.1721C13.6518 16.2917 13.6108 16.4446 13.4912 16.5136L12.6252 17.0136C12.5056 17.0826 12.3528 17.0417 12.2837 16.9221L11.0337 14.757C10.5505 13.92 9.48018 13.6332 8.64317 14.1165L8.21025 14.3664C8.09067 14.4355 7.93778 14.3945 7.86874 14.2749C7.7997 14.1554 7.84067 14.0025 7.96025 13.9334L13.1563 10.9335Z" fill="currentColor"/>
</svg>
