<svg width="100%" height="100%" viewBox="0 0 20 20" fill="none" xmlns="http://www.w3.org/2000/svg">
<path fill-rule="evenodd" clip-rule="evenodd" d="M13.75 18.25H16C16.4142 18.25 16.75 18.5858 16.75 19C16.75 19.4142 16.4142 19.75 16 19.75H5C4.58579 19.75 4.25 19.4142 4.25 19C4.25 18.5858 4.58579 18.25 5 18.25H7.25V14.75H3C1.48122 14.75 0.25 13.5188 0.25 12V8C0.25 6.48122 1.48122 5.25 3 5.25C4.51878 5.25 5.75 6.48122 5.75 8V9.25H6.75V3.5C6.75 1.70507 8.20507 0.25 10 0.25C11.7949 0.25 13.25 1.70507 13.25 3.5V11.25H14.25V9C14.25 7.48122 15.4812 6.25 17 6.25C18.5188 6.25 19.75 7.48122 19.75 9V14C19.75 15.5188 18.5188 16.75 17 16.75H13.75V18.25ZM10 1.75C9.0335 1.75 8.25 2.5335 8.25 3.5V10C8.25 10.4142 7.91421 10.75 7.5 10.75H5C4.58579 10.75 4.25 10.4142 4.25 10V8C4.25 7.30964 3.69036 6.75 3 6.75C2.30964 6.75 1.75 7.30964 1.75 8V12C1.75 12.6904 2.30964 13.25 3 13.25H8C8.41421 13.25 8.75 13.5858 8.75 14V18.25H12.25V16C12.25 15.5858 12.5858 15.25 13 15.25H17C17.6904 15.25 18.25 14.6904 18.25 14V9C18.25 8.30964 17.6904 7.75 17 7.75C16.3096 7.75 15.75 8.30964 15.75 9V12C15.75 12.4142 15.4142 12.75 15 12.75H12.5C12.0858 12.75 11.75 12.4142 11.75 12V3.5C11.75 2.5335 10.9665 1.75 10 1.75Z" fill="currentColor"/>
</svg>
